<?xml version="1.0" encoding="UTF-8"?>
<svg id="Layer_2" xmlns="http://www.w3.org/2000/svg" xmlns:xlink="http://www.w3.org/1999/xlink" version="1.1" viewBox="0 0 234.4 240">
  <!-- Generator: Adobe Illustrator 29.1.0, SVG Export Plug-In . SVG Version: 2.1.0 Build 142)  -->
  <defs>
    <style>
      .st0 {
        fill: url(#linear-gradient);
      }
    </style>
    <linearGradient id="linear-gradient" x1="28.6" y1="42" x2="198.1" y2="174.8" gradientTransform="translate(0 242) scale(1 -1)" gradientUnits="userSpaceOnUse">
      <stop offset="0" stop-color="#4c3eff"/>
      <stop offset="1" stop-color="#cc88f9"/>
    </linearGradient>
  </defs>
  <g id="Layer_1-2">
    <g id="vyIVDQ.tif">
      <path class="st0" d="M142.1,180.4c0,2,.5,3.6.9,5.2,2.8,12.4,7.2,24.2,14.1,34.9,1.7,2.6,3.4,5.1,5.5,7.4.7.8,1.4,1.5,2.3,2.1,2.1,1.4,2.9,3.4,2.3,5.9-.6,2.2-2.6,3.9-5,4-4.3,0-8.6,0-12.9,0h-66.7c-3,0-6.1,0-9.1,0-2.5,0-4.5-1.1-5.6-3.5s-.6-4.6,1.2-6.3c9.2-9.5,14.6-21.1,18.9-33.4,1.9-5.3,3.2-10.8,4.2-16.4,0-.4.2-.9,0-1.4-1.1,1.1-2.2,2.1-3.3,3.2-6.6,6.4-14.6,9.9-23.6,11.4-3,.5-5.9.8-8.9.9-7,.3-13.7-1-20.2-3.5-16.4-6.3-27.4-17.9-33.2-34.5-2.7-7.6-3.6-15.5-2.7-23.5.9-7.3,2.9-14.3,6.6-20.8,4.5-7.8,10.3-14.4,17.9-19.4,10.1-6.6,21.3-9.6,33.4-9,3.7.2,7.4.9,11,1.9.4.1.8.4,1.3.2-8.2-12.6-11.1-26.3-8.2-41.1,2.9-14.7,10.6-26.6,23.1-35,20.2-13.6,46.7-13.2,66.3,2.6,11.2,9,17.7,20.9,19.8,35.2,2.1,14.3-1.5,27.2-9.6,39.1.4.2.7,0,1,0,6.8-2.8,13.9-3.2,21.1-2.6,6.9.6,13.5,2.4,19.7,5.6,10.5,5.4,18.5,13.4,23.8,23.9,8,15.7,9,31.9,2.1,48.2-6.6,15.6-18.3,26.1-34.5,31.1-15.8,4.9-30.9,2.8-45-5.7-2.8-1.7-5.1-3.9-7.6-6.1-.1-.1-.3-.3-.7-.6h0Z"/>
    </g>
  </g>
</svg>