<svg xmlns="http://www.w3.org/2000/svg" fill="current" stroke="current" viewBox="0 0 38.08 33.97"><g id="Layer_2" data-name="Layer 2"><g id="Layer_1-2" data-name="Layer 1"><path d="M36.63,3.79C29-2.23,22.46.21,19.1,2.37a.09.09,0,0,1-.12,0C15.62.21,9.14-2.22,1.49,3.76A3.91,3.91,0,0,0,0,6.85V31.28a2.7,2.7,0,0,0,2.07,2.61,3,3,0,0,0,2.33-.47c2.63-1.75,7.66-4.08,12.43-.75l1.24,1a1.64,1.64,0,0,0,1.89,0l1.21-.93c4.92-3.43,10-1,12.62.76a2.77,2.77,0,0,0,3.35-.18,2.84,2.84,0,0,0,.94-2.19V6.8A3.82,3.82,0,0,0,36.63,3.79Zm-25,23.3A16.54,16.54,0,0,0,4.19,29,.13.13,0,0,1,4,28.89v-22a.14.14,0,0,1,0-.11c5.39-4.18,9.82-3.06,12.81-1.06V28.22A12.78,12.78,0,0,0,11.6,27.09ZM33.89,29c-3.09-1.58-7.95-3-13-.61V5.92c3-2.15,7.56-3.51,13.16.83a.16.16,0,0,1,0,.11v22A.13.13,0,0,1,33.89,29Z" class="cls-1"/></g></g></svg>