<svg fill="current" stroke="current" xmlns="http://www.w3.org/2000/svg" viewBox="0 0 39.88 38.18">
  <g id="Layer_2" data-name="Layer 2">
    <g id="Layer_1-2" data-name="Layer 1">
      <path class="cls-1"
        d="M30.69,38.18a2.57,2.57,0,0,1-1.2-.3l-9.55-5-9.55,5a2.55,2.55,0,0,1-3.71-2.69L8.5,24.55.77,17a2.56,2.56,0,0,1,1.42-4.36L12.87,11.1l4.78-9.67a2.55,2.55,0,0,1,4.58,0h0L27,11.1l10.68,1.56A2.56,2.56,0,0,1,39.11,17l-7.73,7.53L33.2,35.19a2.54,2.54,0,0,1-1,2.5A2.61,2.61,0,0,1,30.69,38.18Zm-25-22,6.18,6a2.57,2.57,0,0,1,.73,2.26L11.11,33l7.64-4a2.57,2.57,0,0,1,2.38,0l7.64,4-1.46-8.5A2.56,2.56,0,0,1,28,22.22l6.18-6L25.68,15a2.54,2.54,0,0,1-1.92-1.4L19.94,5.82l-3.82,7.73A2.54,2.54,0,0,1,14.2,15Z" />
    </g>
  </g>
</svg>