<svg fill="current" stroke="current" xmlns="http://www.w3.org/2000/svg" viewBox="0 0 34.74 37.93"><defs><style>.cls-1{}</style></defs><title>Asset 6</title><g id="Layer_2" data-name="Layer 2"><g id="Layer_1-2" data-name="Layer 1"><path class="cls-1" d="M17.37,20.3A10.15,10.15,0,1,1,27.52,10.15,10.16,10.16,0,0,1,17.37,20.3Zm0-16.3a6.15,6.15,0,1,0,6.15,6.15A6.16,6.16,0,0,0,17.37,4Z"/><path class="cls-1" d="M33.45,37.93H32a1.25,1.25,0,0,1-1.25-1.11c-.72-5.26-6.44-9.38-13.37-9.38S4.72,31.56,4,36.82a1.26,1.26,0,0,1-1.26,1.11H1.28A1.27,1.27,0,0,1,0,36.52c.86-7.33,8.31-13.08,17.36-13.08s16.5,5.75,17.36,13.08A1.27,1.27,0,0,1,33.45,37.93Z"/></g></g></svg>