<svg id="bdd04b7a-824e-4ec5-9119-f664e02d7281" data-name="Layer 1" xmlns="http://www.w3.org/2000/svg" width="676.41643" height="606.15131" viewBox="0 0 676.41643 606.15131"><path d="M733.1664,748.299c-8.99256-7.59865-14.45479-19.60227-13.02232-31.28789s10.30472-22.42829,21.81332-24.90978,24.62761,4.38768,28.12315,15.62987c1.92376-21.6745,4.14055-44.25714,15.6641-62.715,10.43429-16.71314,28.50667-28.672,48.09305-30.81147s40.20832,5.941,52.42362,21.40027,15.20618,37.93388,6.6509,55.68241c-6.30238,13.07474-17.91358,22.80511-30.07923,30.72128A194.12948,194.12948,0,0,1,730.06075,751.055" transform="translate(-261.79178 -146.92434)" fill="#f2f2f2"/><path d="M866.8927,620.59367a317.62453,317.62453,0,0,0-44.26412,43.95415,318.55051,318.55051,0,0,0-49.85571,83.314c-.89773,2.19991,2.67454,3.15752,3.56229.98208a316.75849,316.75849,0,0,1,93.16977-125.638c1.84429-1.5018-.78315-4.10164-2.61223-2.61223Z" transform="translate(-261.79178 -146.92434)" fill="#fff"/><path d="M594.782,248.92434H278.80155a174.06888,174.06888,0,0,1,315.98047,0Z" transform="translate(-261.79178 -146.92434)" fill="#e6e6e6"/><path d="M606.33576,391.05063h14.75958a6,6,0,0,1,6,6V512.68509a13.37978,13.37978,0,0,1-13.37978,13.37978h0a13.37978,13.37978,0,0,1-13.37978-13.37978V397.05063a6,6,0,0,1,6-6Z" transform="translate(-400.83989 169.26466) rotate(-26.05671)" fill="#6c63ff"/><path d="M628.12067,428.95087c.49391-3.38993-2.822-6.37114-6.21816-6.82012s-6.7437.90166-9.90356,2.22488c-5.61374,2.3508-11.31835,4.7557-16.00586,8.6374s-8.29352,9.52922-8.25677,15.6152c.035,5.79209,3.25649,11.02207,6.3708,15.90579l29.21323,45.81092c3.09046,4.84631,6.5863,10.02081,12.03219,11.8593a17.21846,17.21846,0,0,0,11.04386-.46494,26.66643,26.66643,0,0,0,17.32542-26.4278c-.9996-13.12034-11.41512-23.18416-19.21206-33.7837a97.032,97.032,0,0,1-16.234-35.14712" transform="translate(-261.79178 -146.92434)" fill="#2f2e41"/><path d="M545.81787,676.12305a6.47345,6.47345,0,0,1-4.26318-1.59375l-11.13281-9.69043a6.49839,6.49839,0,0,1-.63526-9.16992l80.76514-92.78809a6.5059,6.5059,0,0,1,9.16992-.63477l11.13281,9.68946a6.5079,6.5079,0,0,1,.63477,9.1709l-80.76416,92.7871A6.48669,6.48669,0,0,1,545.81787,676.12305Z" transform="translate(-261.79178 -146.92434)" fill="#6c63ff"/><path d="M534.27539,595.20215a6.509,6.509,0,0,1-5.96094-3.88672l-5.9331-13.51465a6.50728,6.50728,0,0,1,3.33886-8.56445L638.3584,519.78809a6.50957,6.50957,0,0,1,8.56543,3.33886l5.93262,13.51465a6.508,6.508,0,0,1-3.33887,8.56445L536.87939,594.6543A6.46386,6.46386,0,0,1,534.27539,595.20215Z" transform="translate(-261.79178 -146.92434)" fill="#6c63ff"/><path d="M523.97849,642.63377l14.74137.73291a6,6,0,0,0,6.29054-5.69465l2.94362-60.573a6,6,0,0,0-5.69466-6.29054l-14.74137-.73291a6,6,0,0,0-6.29054,5.69465l-2.94361,60.573A6,6,0,0,0,523.97849,642.63377Z" transform="translate(-261.79178 -146.92434)" fill="#6c63ff"/><circle cx="469.92492" cy="274.99121" r="51" fill="#6c63ff"/><path d="M712.672,510.15117l.08918-.42a6.0003,6.0003,0,0,0-1.83189-5.68428l-19.47177-17.71333,2.28514-2.62531a5.99982,5.99982,0,0,0-.58641-8.465L681.0877,464.73847a6.00013,6.00013,0,0,0-8.465.58641l-1.88229,2.16249-17.65168-16.05754a6,6,0,0,0-5.87784-1.27254l0,0a140.27312,140.27312,0,0,0-94.19054,104.38488l-.08918.42a5.99952,5.99952,0,0,0,1.83152,5.684l57.84051,52.61709a5.99953,5.99953,0,0,0,5.87788,1.27249l0,0A140.272,140.272,0,0,0,712.672,510.15117Z" transform="translate(-261.79178 -146.92434)" fill="#2f2e41"/><path d="M634.42344,491.77214H649.183a6,6,0,0,1,6,6V613.4066a13.37977,13.37977,0,0,1-13.37977,13.37977h0a13.37977,13.37977,0,0,1-13.37977-13.37977V497.77214a6,6,0,0,1,6-6Z" transform="translate(814.52489 1144.4087) rotate(-161.76092)" fill="#6c63ff"/><path d="M617.39686,565.12756c-2.77213,2.01267-2.59218,6.468-.543,9.21329s5.35307,4.19943,8.50629,5.53838c5.602,2.37876,11.30607,4.78481,17.35768,5.4317s12.61268-.71327,16.9449-4.98789c4.123-4.0682,5.61918-10.02575,6.94224-15.66481l12.41072-52.89639c1.31292-5.59589,2.57786-11.71114.09282-16.894a17.2184,17.2184,0,0,0-8.04206-7.58342,26.66643,26.66643,0,0,0-31.01763,6.042c-8.69706,9.87439-8.63274,24.35747-10.77991,37.33946a97.03219,97.03219,0,0,1-13.835,36.15872" transform="translate(-261.79178 -146.92434)" fill="#2f2e41"/><path d="M708.81817,436.19989a12.0952,12.0952,0,0,1-1.69756-4.83212,8.13345,8.13345,0,0,1,2.3436-6.45142,5.47151,5.47151,0,0,1,4.57692-1.64387c2.148.28475,4.01249,1.85754,5.20168,4.29718L732.03,412.30883l1.533,1.28436L718.53036,431.534l-.55042-1.73531c-.63949-2.01082-2.07764-4.262-4.20154-4.54338a3.51373,3.51373,0,0,0-2.91768,1.09306,6.14619,6.14619,0,0,0-1.75113,4.80705c.32354,3.03686,2.35732,5.62149,4.78169,8.44464l-1.51726,1.30273A32.96207,32.96207,0,0,1,708.81817,436.19989Z" transform="translate(-261.79178 -146.92434)" fill="#2f2e41"/><rect x="718.82074" y="397.49865" width="1.99975" height="10.77167" transform="translate(-345.6932 441.67101) rotate(-42.24642)" fill="#2f2e41"/><rect x="741.68045" y="422.66674" width="1.99975" height="10.77167" transform="translate(-356.67664 463.57721) rotate(-42.24642)" fill="#2f2e41"/><path d="M769.94371,425.85306c-14.03659-7.51722-29.70577-15.7733-37.44828-30.42669-3.48466-6.595-5.3593-14.46948-4.13575-21.91154a24.88845,24.88845,0,0,1,11.53425-17.24344c12.22459-7.60752,28.51581-6.67442,41.90035-3.11123a87.772,87.772,0,0,1,36.49439,20.28561,89.90269,89.90269,0,0,1,23.66823,34.89341,78.836,78.836,0,0,1,4.62761,20.46735A114.8961,114.8961,0,0,1,845.029,457.215c-3.03646,18.36125-8.72477,36.20421-10.84954,54.72774-1.91269,16.67469-.98174,34.42853,7.34958,49.39011,6.46452,11.60914,17.38161,20.21909,29.67072,24.99295a60.09065,60.09065,0,0,0,38.83578,1.85882,53.01782,53.01782,0,0,0,8.98509-3.68c1.71364-.89078.19838-3.48062-1.51416-2.59041-11.83265,6.15081-25.82092,7.06584-38.63134,3.73918-12.82759-3.33113-24.78428-10.92243-32.33822-21.93456-9.59164-13.98267-11.18559-31.66353-9.72921-48.12291,1.65833-18.74167,7.42914-36.76155,10.70949-55.2258a127.19361,127.19361,0,0,0,2.25274-28.8352,81.821,81.821,0,0,0-4.05131-21.50906,93.72257,93.72257,0,0,0-59.08672-58.57115c-13.51157-4.35106-29.46-5.95678-42.889-.46853-6.71857,2.74578-12.64263,7.45743-15.84593,14.08746-3.31686,6.86505-3.55527,14.78063-1.74423,22.10187,4.04149,16.338,17.51855,27.15541,31.41776,35.27079,3.57138,2.08523,7.21388,4.04494,10.85909,5.99711,1.70159.91128,3.21858-1.67762,1.51415-2.59041Z" transform="translate(-261.79178 -146.92434)" fill="#2f2e41"/><path d="M436.79178,496.92434c-96.49536,0-175-78.50488-175-175a173.46993,173.46993,0,0,1,16.1023-73.42041,175.05877,175.05877,0,0,1,317.79541.00049,173.46431,173.46431,0,0,1,16.10229,73.41992C611.79178,418.41946,533.28715,496.92434,436.79178,496.92434Zm0-348A173.62884,173.62884,0,0,0,279.70914,249.34426a171.483,171.483,0,0,0-15.91736,72.58008c0,95.39258,77.60743,173,173,173s173-77.60742,173-173a171.479,171.479,0,0,0-15.91723-72.57959A173.62877,173.62877,0,0,0,436.79178,148.92434Z" transform="translate(-261.79178 -146.92434)" fill="#3f3d56"/><path d="M501.07468,230.14757H371.63437a6.04737,6.04737,0,1,1,0-12.09473H501.07468a6.04737,6.04737,0,1,1,0,12.09473Z" transform="translate(-261.79178 -146.92434)" fill="#fff"/><path d="M459.57468,204.14757H413.13437a6.04737,6.04737,0,1,1,0-12.09473h46.44031a6.04737,6.04737,0,1,1,0,12.09473Z" transform="translate(-261.79178 -146.92434)" fill="#fff"/><path d="M371.76387,309.31617l-3.9059-1.27888c-13.941-4.70019-23.09976-7.70185-26.362-15.05528a11.44431,11.44431,0,0,1,5.55438-15.20177q.15055-.07.30306-.13555a12.44874,12.44874,0,0,1,10.459.224,12.44837,12.44837,0,0,1,6.85293-7.90431,11.44436,11.44436,0,0,1,15.16788,5.6464q.069.15094.13369.30384c3.26231,7.35349-.65874,16.158-6.52986,29.6476Z" transform="translate(-261.79178 -146.92434)" fill="#ff6584"/><path d="M492.02636,424.37346H379.68958a13.14531,13.14531,0,0,1-13.13027-13.13027v-71.487a13.14531,13.14531,0,0,1,13.13027-13.13027H492.02636a13.14531,13.14531,0,0,1,13.13027,13.13027v71.487A13.14531,13.14531,0,0,1,492.02636,424.37346ZM379.68958,329.54372a10.2239,10.2239,0,0,0-10.21243,10.21243v71.487a10.2239,10.2239,0,0,0,10.21243,10.21243H492.02636a10.2239,10.2239,0,0,0,10.21243-10.21243v-71.487a10.2239,10.2239,0,0,0-10.21243-10.21243Z" transform="translate(-261.79178 -146.92434)" fill="#3f3d56"/><path d="M435.256,374.85356a14.64792,14.64792,0,0,1-8.397-2.62648L370.49066,332.817l1.67192-2.39069L428.531,369.83639a11.80109,11.80109,0,0,0,13.29447.104l58.02784-39.23125,1.63416,2.41776-58.02784,39.23125A14.64652,14.64652,0,0,1,435.256,374.85356Z" transform="translate(-261.79178 -146.92434)" fill="#3f3d56"/><circle cx="173.33673" cy="227.84587" r="17.50703" fill="#3f3d56"/><path d="M937.01753,753.07566h-442.294a1.19069,1.19069,0,1,1,0-2.38137h442.294a1.19069,1.19069,0,1,1,0,2.38137Z" transform="translate(-261.79178 -146.92434)" fill="#e6e6e6"/></svg>