<svg version="1" xmlns="http://www.w3.org/2000/svg" width="420" height="420" viewBox="0 0 315.000000 315.000000"><path d="M73.6.8c-.9.2-13.5 8.5-27.9 18.4-14.4 10-29.8 20.6-34.2 23.6-4.4 3-8.6 6-9.3 6.7C1.1 50.5.9 69.6 1 155.1c.1 57.4.2 116.8.2 131.9v27.5l131.2-.1c72.3-.1 131.7-.4 132.2-.7 1-.6.9-262.5-.1-263.5-.3-.3-49.3-.5-109-.4-59.7.1-108.5 0-108.5-.2s8.4-5.9 18.7-12.7l18.7-12.4 103.2-.2c78.1-.1 103.3.1 103.7 1 .2.7.4 42.1.5 92.2 0 50 .1 106.3.1 125l.1 34h11.3l11.4.1-.1-137.8C314.5 47.7 314.2 1 313.5.9 311.1.6 75.2.5 73.6.8z"/></svg>