<?xml version="1.0" encoding="UTF-8"?>
<svg id="Layer_2" xmlns="http://www.w3.org/2000/svg" version="1.1" viewBox="0 0 80 13.6">
  <!-- Generator: Adobe Illustrator 29.2.1, SVG Export Plug-In . SVG Version: 2.1.0 Build 116)  -->
  <defs>
    <style>
      .st0 {
        fill: #fff;
      }

      .st1 {
        fill: #0d71ba;
      }
    </style>
  </defs>
  <path class="st0" d="M0,2h2.2l4.9,6V3.4c0-.5,0-.8-.2-.9,0-.2-.4-.2-.7-.2h-.3v-.2h2.8v.2h-.3c-.3,0-.6,0-.7.3,0,0,0,.4,0,.9v6.7h-.2L2.1,3.7v4.9c0,.5,0,.8.2.9,0,.2.4.2.7.2h.3v.2H.4v-.2h.3c.3,0,.6-.1.7-.3,0-.1.1-.4.1-.9V3.1c-.2-.3-.4-.4-.5-.5s-.3-.2-.5-.2H0v-.4Z"/>
  <path class="st0" d="M11.8,4.4c.8,0,1.5.3,2,.9.4.5.6,1.1.6,1.8s-.1,1-.3,1.5-.5.9-1,1.1-.9.4-1.4.4c-.8,0-1.5-.3-1.9-1-.4-.5-.6-1.2-.6-1.8s.1-1,.4-1.5.6-.8,1-1.1.8-.3,1.3-.3h-.1ZM11.6,4.8c-.2,0-.4,0-.6.2s-.4.3-.5.6-.2.7-.2,1.2c0,.8.2,1.5.5,2s.7.8,1.2.8.7-.2.9-.5.4-.8.4-1.6-.2-1.7-.6-2.2c-.3-.4-.6-.6-1.1-.6h0Z"/>
  <path class="st0" d="M22.1,1.8l.2,2.7h-.2c-.2-.8-.6-1.4-1-1.7s-1-.5-1.6-.5-1,0-1.4.4-.8.7-1,1.3-.4,1.3-.4,2.2.1,1.3.3,1.9.6.9,1,1.2,1,.4,1.6.4,1-.1,1.4-.3.8-.7,1.3-1.3h.2c-.4.8-.9,1.3-1.4,1.7s-1.2.5-1.9.5c-1.3,0-2.3-.5-3.1-1.5-.5-.7-.8-1.6-.8-2.6s.2-1.5.5-2.2.8-1.2,1.5-1.5,1.3-.5,2-.5,1.1,0,1.7.4c.2,0,.3,0,.4,0s.2,0,.3,0c.1,0,.2-.3.2-.4h.2v-.2Z"/>
  <path class="st0" d="M25.8,4.4c.8,0,1.5.3,2,.9.4.5.6,1.1.6,1.8s-.1,1-.3,1.5-.5.9-1,1.1-.9.4-1.4.4c-.8,0-1.5-.3-1.9-1-.4-.5-.6-1.2-.6-1.8s.1-1,.4-1.5.6-.8,1-1.1.8-.3,1.3-.3h-.1ZM25.6,4.8c-.2,0-.4,0-.6.2s-.4.3-.5.6-.2.7-.2,1.2c0,.8.2,1.5.5,2s.7.8,1.2.8.7-.2.9-.5.4-.8.4-1.6-.2-1.7-.6-2.2c-.3-.4-.6-.6-1.1-.6h0Z"/>
  <path class="st0" d="M33.9,4.6v4.4c0,.1,0,.2,0,.3s0,0,.2,0h.4v.2l-1.5.7h-.3v-1.1c-.5.5-.8.8-1.1.9s-.5.2-.8.2-.6,0-.8-.3-.4-.4-.5-.7-.1-.7-.1-1.2v-2.9c0,0-.1-.2-.2-.2h-.6v-.2h1.9v3.6c0,.5,0,.8.3,1s.4.2.6.2.4,0,.6-.2.5-.3.8-.6v-3c0-.3,0-.5-.2-.6s-.3-.2-.7-.2v-.2h1.9Z"/>
  <path class="st0" d="M36.8,4.4v1.2c.4-.8.9-1.2,1.4-1.2s.4,0,.5.2.2.3.2.5,0,.3-.2.4-.2.2-.4.2-.3,0-.5-.2-.3-.2-.4-.2,0,0-.2,0c-.2.2-.4.4-.5.8v2.6c0,.3,0,.5,0,.7,0,.1,0,.2.3.3s.3.1.6.1v.2h-2.7v-.2c.3,0,.5,0,.6-.1,0,0,.2-.2.2-.3v-3.8c0,0,0-.2,0-.3s-.2,0-.3,0h-.4v-.2l1.6-.7h.2Z"/>
  <path class="st0" d="M42.7,4.4v1.8h-.2c0-.6-.3-1-.6-1.2s-.5-.3-.9-.3-.5,0-.7.2-.3.3-.3.5,0,.4.2.6c0,.2.4.3.7.5l.9.4c.8.4,1.2.9,1.2,1.5s-.2.9-.6,1.2-.8.4-1.2.4-.7,0-1.1-.2h-.3c0,0-.2,0-.2.2h-.2v-1.9h.2c0,.5.3,1,.6,1.2s.7.4,1,.4.5,0,.7-.2.3-.3.3-.6,0-.5-.3-.7-.6-.4-1.1-.7-.9-.5-1.1-.8c-.2-.2-.3-.5-.3-.8s.2-.8.5-1.1.7-.4,1.2-.4.5,0,.8,0h.4q.1,0,0,0v-.2h.3,0Z"/>
  <path class="st0" d="M44.8,6.6c0,.8.2,1.4.6,1.9s.8.7,1.4.7.7,0,.9-.3.5-.5.7-1h.2c0,.7-.3,1.1-.7,1.6s-.9.7-1.5.7-1.2-.3-1.7-.8-.7-1.2-.7-2,.2-1.6.7-2.1,1.1-.8,1.8-.8,1.1.2,1.5.6.6.9.6,1.6h-3.8ZM44.8,6.3h2.5c0-.3,0-.6,0-.7,0-.2-.2-.4-.4-.5s-.4-.2-.6-.2c-.3,0-.6,0-.9.4s-.4.6-.4,1.1h0Z"/>
  <path class="st0" d="M52.7,4.4v1.8h-.2c0-.6-.3-1-.6-1.2s-.5-.3-.9-.3-.5,0-.7.2-.3.3-.3.5,0,.4.2.6c0,.2.4.3.7.5l.9.4c.8.4,1.2.9,1.2,1.5s-.2.9-.6,1.2-.8.4-1.2.4-.7,0-1.1-.2h-.3c0,0-.2,0-.2.2h-.2v-1.9h.2c0,.5.3,1,.6,1.2s.7.4,1,.4.5,0,.7-.2.3-.3.3-.6,0-.5-.3-.7-.6-.4-1.1-.7-.9-.5-1.1-.8c-.2-.2-.3-.5-.3-.8s.2-.8.5-1.1.7-.4,1.2-.4.5,0,.8,0h.4q.1,0,0,0v-.2h.3,0Z"/>
  <path class="st1" d="M60.4,2v1.9h0c0-.3,0-.6-.2-.7,0-.2-.3-.4-.5-.5s-.5-.2-.8-.2h-1.1v6.1c0,.5,0,.8.2.9,0,.2.4.2.7.2h.3v.2h-3.4v-.2h.3c.3,0,.6-.1.7-.3,0-.1,0-.4,0-.9V2.5h-1.8c-.2,0-.4.2-.5.4s-.2.5-.3.9h-.2v-1.9h6.6Z"/>
  <path class="st1" d="M63.4,9.2c-.6.4-.9.7-1,.7-.2,0-.4.1-.7.1s-.7-.1-.9-.4-.4-.6-.4-1,0-.5.2-.7c.2-.3.4-.5.8-.8s1.1-.5,2-.9v-.2c0-.5,0-.9-.3-1.1s-.4-.3-.7-.3-.4,0-.6.2-.2.3-.2.5v.3c0,.2,0,.3,0,.4s-.2,0-.4,0-.3,0-.4-.2,0-.2,0-.4c0-.3.2-.6.5-.9s.8-.4,1.4-.4.9,0,1.2.2c.2,0,.4.3.5.6,0,.2,0,.5,0,1v2.9h.4s.2-.2.5-.4v.3c-.4.6-.9.9-1.3.9s-.3,0-.5-.2-.2-.4-.2-.7l.2.4ZM63.4,8.8v-2c-.6.2-1,.4-1.1.5-.3.2-.5.4-.7.5s-.2.4-.2.6,0,.5.3.7.4.3.6.3.7-.2,1.2-.6h0Z"/>
  <path class="st1" d="M67.2,5.5c.5-.7,1.1-1.1,1.7-1.1s1,.2,1.4.7.6,1.1.6,1.9-.3,1.7-.9,2.3c-.5.5-1.1.8-1.8.8s-.6,0-1-.2-.7-.3-1-.5V2.8c0,0,0-.2,0-.3s0,0-.2,0h-.4v-.2l1.5-.7h.3v3.9h0ZM67.2,5.9v3.2c.2.2.4.3.6.4s.4.1.7.1.7-.2,1-.6.5-1,.5-1.7-.2-1.2-.5-1.6-.7-.6-1-.6-.4,0-.6.2c-.2,0-.4.2-.6.5h0Z"/>
  <path class="st1" d="M73.5,1.6v7.8c0,0,0,.2.2.2h.6v.2h-2.6v-.2h.5c0,0,.2-.1.2-.3V2.8c0,0,0-.2,0-.3s0,0-.2,0h-.4v-.2l1.5-.7s.3,0,.3,0Z"/>
  <path class="st1" d="M75.9,6.6c0,.8.2,1.4.6,1.9s.8.7,1.4.7.7,0,.9-.3.5-.5.7-1h.2c0,.7-.3,1.1-.7,1.6s-.9.7-1.5.7-1.2-.3-1.7-.8-.7-1.2-.7-2,.2-1.6.7-2.1,1.1-.8,1.8-.8,1.1.2,1.5.6.6.9.6,1.6h-3.8ZM75.9,6.3h2.5c0-.3,0-.6,0-.7,0-.2-.2-.4-.4-.5s-.4-.2-.6-.2c-.3,0-.6,0-.9.4s-.4.6-.4,1.1h0Z"/>
</svg>