<svg xmlns="http://www.w3.org/2000/svg" viewBox="0 0 944.78 137.6"><defs><style>.cls-1{fill:#231f20}.cls-2{fill:#0071bc}</style></defs><title>Asset 3</title><g id="Layer_2" data-name="Layer 2"><g id="Layer_2-2" data-name="Layer 2"><path d="M118.6,42.8C112,24.2,94.8,12,73,12,39.6,12,18.8,36.2,18.8,69.8c0,36.2,26,62.8,56.4,62.8,15.8,0,35.2-5.4,48.8-29.6h3.8A136.18,136.18,0,0,1,115,132.2c-12.8-1.8-21.6,5.4-45.2,5.4C29.2,137.6,0,110.8,0,73.8,0,35,30,7,71.8,7c25.2,0,36,8,42.2,8,2.2,0,3.2-.6,3.6-1.2h3l1.8,29Z" class="cls-1"/><path d="M177.6,53c24.4,0,43,18.2,43,42,0,23.6-18.6,41.8-42.4,41.8-24.8,0-43.8-18-43.8-41.4C134.4,67.8,156.8,53,177.6,53Zm2.8,79c11.8,0,25.2-12,25.2-32,0-22.8-14-42.2-30.8-42.2-13.2,0-25.4,13.6-25.4,30.8C149.4,112.8,163.2,132,180.4,132Z" class="cls-1"/><path d="M322.59,128.6l-26.8,8.2v-16c-15,10.8-26,16-34,16-10,0-21.2-6.8-21.2-20.4V72c0-4.8-1.2-7-5.4-8.2l-7-2v-3L254,53.2v56c0,12.4,9,18,18,18,6.8,0,15.6-4.2,23.79-11v-43c0-7.8-1-9.4-7.39-10.6l-10-1.8V58l30.8-4.8v67.4c0,5.6,2,6.6,9.19,5.2l4.2-.8Z" class="cls-1"/><path d="M359.39,119.8c0,8.2,3,10.8,13,10.8H380v3.8H332.6v-3.8c10.19-.2,13.4-4.4,13.4-15V69.4l-13.4-4.8V61.2l22.8-8h4V74.4h.4c10-16.4,12.41-20.2,19-20.2,2.4,0,3,.2,6.8,1.8,2,.8,5.6,1.6,10.4,3l-4.8,12a36.83,36.83,0,0,1-10.6-3.2,17.52,17.52,0,0,0-7-2c-3.59,0-5.8,2.4-7.8,5.2a93.3,93.3,0,0,0-6.4,10Z" class="cls-1"/><path d="M407.59,114.2c2.4,12,10,18.8,19,18.8,8,0,14.2-6,14.2-13.2,0-4.2-1-6.8-6.4-12.2-14.2-14.2-30-15.6-30-32.2,0-13.2,10.4-22.4,25.6-22.4a43.89,43.89,0,0,1,16,3.2l.4,18.2H443c-1.4-10.2-8-16.6-16-16.6-6.6,0-12.2,4.6-12.2,11.2,0,17.6,37.2,20.6,37.2,45,0,13-10.8,22.8-24.8,22.8a25.23,25.23,0,0,1-8.8-1.4,22.27,22.27,0,0,0-5.4-1.2c-1.2,0-2.4.8-3.4,2.4h-3l-2.2-22.4Z" class="cls-1"/><path d="M481.19,83.6a65.84,65.84,0,0,0-.8,8.4c0,20.8,14.6,34.8,30.4,34.8,10,0,17.8-4,25.4-13l2.2,2.4c-8.4,10.6-21,20.6-35.6,20.6-19.6,0-34.8-17.8-34.8-41,0-21.2,14.2-42.8,38.6-42.8,27,0,26.4,19.4,33,26v4.6Zm41.6-5.2c-2.2-13-10.2-21.6-19.8-21.6-6.6,0-16.6,3-21.2,21.6Z" class="cls-1"/><path d="M602,116c0,10.8,3.6,14.6,15.8,14.6h7.4v3.8h-63v-3.8h7.4c12.2,0,15.8-3.8,15.8-14.6V17.2h-34.8c-8,0-11.6,4.6-14.6,22.2h-3.6L535.59,7h3.8a3,3,0,0,0,2.2,2.4,12.9,12.9,0,0,0,4,.6h96.2c2.8,0,5.8-.6,6.2-3h3.8L655,39.4h-3.6c-3-17.6-6.6-22.2-14.6-22.2H602Z" class="cls-2"/><path d="M648.39,79a7.85,7.85,0,0,1-.6-2.8c0-7,16.6-23.2,29.6-23.2,6,0,15.4,2.8,21,10.6,3,4.2,3,6.8,3,17.2v26.8c0,16,0,19.6,5.2,19.6,2.2,0,4.8-.2,9.8-4.4l1,3c-10.8,8.8-16.4,11-19.8,11-8.2,0-9-9-9.2-12.2-13.8,11.4-17.8,12.2-23.2,12.2-11.6,0-18.6-6.6-18.6-16.4,0-12.2,10.8-16.4,23.6-19.6A66.6,66.6,0,0,0,688,93.2V77.4c0-5.6,0-8.8-3.4-12.8-2.6-3.2-6.8-5.8-11.2-5.8-6.6,0-12.4,5.6-12.4,9.8a8.22,8.22,0,0,0,1,3.8ZM688,97.2a93.22,93.22,0,0,1-11.8,5.6c-12.2,5-16.8,7-16.8,15.2a11.69,11.69,0,0,0,11.8,11.8c3.2,0,5.6-1,16.8-8.8Z" class="cls-2"/><path d="M747,67c14.2-10.2,22.8-14,30.2-14C795,53,810,70.6,810,91.6c0,25.6-20.2,45.2-46.8,45.2-9,0-16.8-1.4-29.6-3.8V24.6c0-10.4-.6-11.2-8.2-12.2l-5.6-.8V8.2l24-8.2H747Zm0,43c0,10,6.6,21,21.8,21,16.4,0,27.8-13.8,27.8-33.8s-11.8-35-27.2-35c-6.2,0-13.4,3-22.4,9.4Z" class="cls-2"/><path d="M846.79,118.6c0,8.2,3.8,12,11.6,12h3.4v3.8h-45v-3.8c12.8,0,16.6-3.8,16.6-13.4V20.6c0-5.6-.6-7.4-6.2-8l-9-1V8.2L843.79,0h3Z" class="cls-2"/><path d="M886.38,83.6a65.84,65.84,0,0,0-.8,8.4c0,20.8,14.6,34.8,30.4,34.8,10,0,17.8-4,25.4-13l2.2,2.4c-8.4,10.6-21,20.6-35.6,20.6-19.6,0-34.8-17.8-34.8-41,0-21.2,14.2-42.8,38.6-42.8,27,0,26.4,19.4,33,26v4.6ZM928,78.4c-2.2-13-10.2-21.6-19.8-21.6-6.6,0-16.6,3-21.2,21.6Z" class="cls-2"/></g></g></svg>